<svg width="16" height="16" viewBox="0 0 16 16" fill="none" xmlns="http://www.w3.org/2000/svg">
<g clip-path="url(#clip0_3304_28952)">
<path d="M7.33268 14.6667C7.33268 15.0349 7.63116 15.3334 7.99935 15.3334C8.36754 15.3334 8.66602 15.0349 8.66602 14.6667V8.66669H14.666C15.0342 8.66669 15.3327 8.36821 15.3327 8.00002C15.3327 7.63183 15.0342 7.33335 14.666 7.33335H8.66602V1.33335C8.66602 0.965164 8.36754 0.666687 7.99935 0.666687C7.63116 0.666687 7.33268 0.965164 7.33268 1.33335V7.33335H1.33268C0.964492 7.33335 0.666016 7.63183 0.666016 8.00002C0.666016 8.36821 0.964492 8.66669 1.33268 8.66669H7.33268V14.6667Z" fill="#252525"/>
</g>
<defs>
<clipPath id="clip0_3304_28952">
<rect width="16" height="16" fill="white"/>
</clipPath>
</defs>
</svg>
