<svg width="16" height="16" viewBox="0 0 16 16" fill="none" xmlns="http://www.w3.org/2000/svg">
<g clip-path="url(#clip0_3304_22063)">
<path d="M9.92132 1.33339C9.63258 1.33704 9.40049 1.57644 9.40414 1.86701V5.37578C9.40414 6.63674 10.3215 7.64734 11.5094 7.89953V13.7968C11.5076 13.9869 11.6063 14.1623 11.7707 14.2592C11.9352 14.3542 12.1362 14.3542 12.3007 14.2592C12.4652 14.1623 12.5639 13.9869 12.562 13.7968V7.89953C13.7499 7.64734 14.6673 6.63674 14.6673 5.37578V1.86701C14.6691 1.67695 14.5704 1.50152 14.406 1.40466C14.2415 1.30963 14.0405 1.30963 13.876 1.40466C13.7115 1.50152 13.6128 1.67695 13.6147 1.86701V5.37578C13.6147 6.06657 13.1742 6.63309 12.562 6.85056V1.86701C12.5639 1.67695 12.4652 1.50152 12.3007 1.40466C12.1362 1.30963 11.9352 1.30963 11.7707 1.40466C11.6063 1.50152 11.5076 1.67695 11.5094 1.86701V6.85056C10.8972 6.63309 10.4568 6.06657 10.4568 5.37578V1.86701C10.4586 1.72447 10.4038 1.58741 10.3033 1.4869C10.2009 1.38638 10.0639 1.33156 9.92132 1.33339ZM1.8603 1.3407C1.56973 1.3407 1.33398 1.57644 1.33398 1.86701V6.42841C1.33398 8.0768 2.56571 9.39258 4.141 9.65391V13.2705H2.91293C2.72287 13.2687 2.54743 13.3674 2.45058 13.5318C2.35555 13.6963 2.35555 13.8973 2.45058 14.0618C2.54743 14.2263 2.72287 14.325 2.91293 14.3231H4.58142C4.63807 14.3323 4.69472 14.3323 4.75138 14.3231H6.42169C6.61175 14.325 6.78719 14.2263 6.88405 14.0618C6.97908 13.8973 6.97908 13.6963 6.88405 13.5318C6.78719 13.3674 6.61175 13.2687 6.42169 13.2705H5.19363V9.65391C6.76892 9.39258 8.00064 8.0768 8.00064 6.42841V1.86701C8.00064 1.57644 7.76489 1.3407 7.47432 1.3407H1.8603ZM2.38661 2.39333H6.94801V6.42841C6.94801 7.68389 5.94838 8.68535 4.69838 8.70362C4.67828 8.70179 4.65635 8.70179 4.63624 8.70362C3.38625 8.68535 2.38661 7.68389 2.38661 6.42841V2.39333Z" fill="white"/>
</g>
<defs>
<clipPath id="clip0_3304_22063">
<rect width="16" height="16" fill="white"/>
</clipPath>
</defs>
</svg>
