<svg width="16" height="16" viewBox="0 0 16 16" fill="none" xmlns="http://www.w3.org/2000/svg">
<g clip-path="url(#clip0_3304_28825)">
<path d="M4.17296 5.00001C3.35004 5.00001 2.67296 5.67709 2.67296 6.50001V7.83334C2.67296 8.65626 3.35004 9.33334 4.17296 9.33334H12.0132C12.8362 9.33334 13.5132 8.65626 13.5132 7.83334V6.50001C13.5132 5.67709 12.8362 5.00001 12.0132 5.00001H4.17296ZM4.17296 6.00001H12.0132C12.2962 6.00001 12.5132 6.21702 12.5132 6.50001V7.83334C12.5132 8.11633 12.2962 8.33334 12.0132 8.33334H4.17296C3.88997 8.33334 3.67296 8.11633 3.67296 7.83334V6.50001C3.67296 6.21702 3.88997 6.00001 4.17296 6.00001ZM3.17296 2.66666C2.9924 2.66493 2.82574 2.75868 2.73372 2.91493C2.64345 3.07118 2.64345 3.26215 2.73372 3.4184C2.82574 3.57465 2.9924 3.6684 3.17296 3.66666H10.6799C10.8605 3.6684 11.0271 3.57465 11.1191 3.4184C11.2094 3.26215 11.2094 3.07118 11.1191 2.91493C11.0271 2.75868 10.8605 2.66493 10.6799 2.66666H3.17296ZM3.17296 10.6666C2.9924 10.6649 2.82574 10.7587 2.73372 10.9149C2.64345 11.0712 2.64345 11.2621 2.73372 11.4184C2.82574 11.5746 2.9924 11.6684 3.17296 11.6667H10.0132C10.1938 11.6684 10.3605 11.5746 10.4525 11.4184C10.5428 11.2621 10.5428 11.0712 10.4525 10.9149C10.3605 10.7587 10.1938 10.6649 10.0132 10.6666H3.17296ZM3.17296 13C2.9924 12.9983 2.82574 13.092 2.73372 13.2483C2.64345 13.4045 2.64345 13.5955 2.73372 13.7517C2.82574 13.908 2.9924 14.0017 3.17296 14H12.0132C12.1938 14.0017 12.3605 13.908 12.4525 13.7517C12.5428 13.5955 12.5428 13.4045 12.4525 13.2483C12.3605 13.092 12.1938 12.9983 12.0132 13H3.17296Z" fill="#3B3B3B"/>
</g>
<defs>
<clipPath id="clip0_3304_28825">
<rect width="16" height="16" fill="white"/>
</clipPath>
</defs>
</svg>
