<svg width="16" height="16" viewBox="0 0 16 16" fill="none" xmlns="http://www.w3.org/2000/svg">
<path d="M2.50694 14C2.32639 14.0017 2.15972 13.908 2.06771 13.7517C1.97743 13.5955 1.97743 13.4045 2.06771 13.2482C2.15972 13.092 2.32639 12.9982 2.50694 13L13.5069 13C13.6875 12.9982 13.8542 13.092 13.9462 13.2482C14.0365 13.4045 14.0365 13.5955 13.9462 13.7517C13.8542 13.908 13.6875 14.0017 13.5069 14L2.50694 14Z" fill="#3B3B3B"/>
<path d="M5.57143 11.3267C4.70833 11.3267 4 10.5003 4 9.49333L4 5.15999C4 4.15305 4.70833 3.32666 5.57143 3.32666L10.4286 3.32666C11.2917 3.32666 12 4.15305 12 5.15999V9.49333C12 10.5003 11.2917 11.3267 10.4286 11.3267L5.57143 11.3267ZM5.57143 10.3267H10.4286C10.8274 10.3267 11.1429 9.95861 11.1429 9.49333V5.15999C11.1429 4.69472 10.8274 4.32666 10.4286 4.32666L5.57143 4.32666C5.17262 4.32666 4.85714 4.69472 4.85714 5.15999L4.85714 9.49333C4.85714 9.95861 5.17262 10.3267 5.57143 10.3267Z" fill="#3B3B3B"/>
</svg>
