<svg width="12" height="12" viewBox="0 0 12 12" fill="none" xmlns="http://www.w3.org/2000/svg">
<path d="M9.87119 1.74475C9.77223 1.74735 9.67848 1.78772 9.60947 1.85933L6.00009 5.47001L2.39072 1.85933C2.3191 1.78772 2.22275 1.74605 2.12119 1.74605C1.96884 1.74605 1.83082 1.8385 1.77353 1.98043C1.71624 2.12105 1.75009 2.28381 1.85947 2.39058L5.47014 5.99996L1.85947 9.60933C1.76181 9.70439 1.72275 9.84371 1.7566 9.97522C1.79046 10.1067 1.89332 10.2096 2.02483 10.2434C2.15634 10.2773 2.29567 10.2382 2.39072 10.1406L6.00009 6.52991L9.60947 10.1406C9.70452 10.2382 9.84384 10.2773 9.97535 10.2434C10.1069 10.2096 10.2097 10.1067 10.2436 9.97522C10.2774 9.84371 10.2384 9.70439 10.1407 9.60933L6.53004 5.99996L10.1407 2.39058C10.2514 2.28251 10.2866 2.11845 10.2267 1.97522C10.1668 1.83199 10.0261 1.74084 9.87119 1.74475Z" fill="black"/>
</svg>