<svg width="12" height="12" viewBox="0 0 12 12" fill="none" xmlns="http://www.w3.org/2000/svg">
<path d="M2.125 1.75C1.50781 1.75 1 2.25781 1 2.875V9.125C1 9.74219 1.50781 10.25 2.125 10.25H9.875C10.4922 10.25 11 9.74219 11 9.125V2.875C11 2.25781 10.4922 1.75 9.875 1.75H2.125ZM2.125 2.5H4V9.5H2.125C1.91276 9.5 1.75 9.33724 1.75 9.125V2.875C1.75 2.66276 1.91276 2.5 2.125 2.5ZM4.75 2.5H7.25V9.5H4.75V2.5ZM8 2.5H9.875C10.0872 2.5 10.25 2.66276 10.25 2.875V9.125C10.25 9.33724 10.0872 9.5 9.875 9.5H8V2.5Z" fill="black"/>
</svg>