<svg width="12" height="12" viewBox="0 0 12 12" fill="none" xmlns="http://www.w3.org/2000/svg">
<path d="M2.875 1.5C2.11979 1.5 1.5 2.11979 1.5 2.875V9.125C1.5 9.88021 2.11979 10.5 2.875 10.5H9.125C9.88021 10.5 10.5 9.88021 10.5 9.125V2.875C10.5 2.11979 9.88021 1.5 9.125 1.5H2.875ZM2.875 2.25H5.625V9.75H2.875C2.52604 9.75 2.25 9.47396 2.25 9.125V2.875C2.25 2.52604 2.52604 2.25 2.875 2.25ZM6.375 2.25H9.125C9.47396 2.25 9.75 2.52604 9.75 2.875V9.125C9.75 9.47396 9.47396 9.75 9.125 9.75H6.375V2.25Z" fill="white"/>
</svg>