<svg width="16" height="16" viewBox="0 0 16 16" fill="none" xmlns="http://www.w3.org/2000/svg">
<g clip-path="url(#clip0_3304_18240)">
<path d="M6.83247 1.33334C6.66927 1.33161 6.51476 1.40973 6.41927 1.54167C6.32378 1.67536 6.29948 1.84549 6.35503 2.00001H4.87934C4.26649 2.00001 3.69358 2.3073 3.3533 2.81598L2.5651 4.00001H2.49913C2.31858 3.99827 2.15191 4.09202 2.0599 4.24827C1.96962 4.40452 1.96962 4.59549 2.0599 4.75174C2.15191 4.90799 2.31858 5.00174 2.49913 5.00001H2.75434C2.79601 5.00695 2.83941 5.00695 2.88281 5.00174L3.70747 12.6962C3.80642 13.6233 4.59809 14.3333 5.53038 14.3333H10.4679C11.4002 14.3333 12.1901 13.6233 12.2908 12.6962L13.1155 5.00174C13.1571 5.00695 13.2005 5.00695 13.2422 5.00001H13.4991C13.6797 5.00174 13.8464 4.90799 13.9384 4.75174C14.0286 4.59549 14.0286 4.40452 13.9384 4.24827C13.8464 4.09202 13.6797 3.99827 13.4991 4.00001H13.4332L12.645 2.81598C12.3047 2.3073 11.7318 2.00001 11.1189 2.00001H9.64323C9.69878 1.84549 9.67448 1.67536 9.57899 1.54167C9.48351 1.40973 9.32899 1.33161 9.1658 1.33334H6.83247ZM4.87934 3.00001H11.1189C11.3984 3.00001 11.6571 3.1389 11.8116 3.37154L12.2318 4.00001H3.76649L4.18663 3.37154C4.18663 3.37154 4.18663 3.37154 4.18663 3.3698C4.34115 3.1389 4.59983 3.00001 4.87934 3.00001ZM3.88976 5.00001H12.1085L11.296 12.5886C11.2509 13.0156 10.8967 13.3333 10.4679 13.3333H5.53038C5.09983 13.3333 4.7474 13.0156 4.70226 12.5886L3.88976 5.00001Z" fill="#AF1215"/>
</g>
<defs>
<clipPath id="clip0_3304_18240">
<rect width="16" height="16" fill="white"/>
</clipPath>
</defs>
</svg>
