<svg width="12" height="12" viewBox="0 0 12 12" fill="none" xmlns="http://www.w3.org/2000/svg">
<path d="M5.12508 1.00002C5.00269 0.998719 4.8868 1.05731 4.81519 1.15627C4.74357 1.25653 4.72534 1.38414 4.76701 1.50002H3.66024C3.2006 1.50002 2.77091 1.73049 2.51571 2.112L1.92456 3.00002H1.87508C1.73966 2.99872 1.61466 3.06903 1.54565 3.18622C1.47795 3.30341 1.47795 3.44664 1.54565 3.56382C1.61466 3.68101 1.73966 3.75132 1.87508 3.75002H2.06649C2.09774 3.75523 2.13029 3.75523 2.16284 3.75132L2.78133 9.52216C2.85555 10.2175 3.4493 10.75 4.14852 10.75H7.85164C8.55086 10.75 9.14331 10.2175 9.21883 9.52216L9.83732 3.75132C9.86857 3.75523 9.90112 3.75523 9.93237 3.75002H10.1251C10.2605 3.75132 10.3855 3.68101 10.4545 3.56382C10.5222 3.44664 10.5222 3.30341 10.4545 3.18622C10.3855 3.06903 10.2605 2.99872 10.1251 3.00002H10.0756L9.48446 2.112C9.22925 1.73049 8.79956 1.50002 8.33993 1.50002H7.23315C7.27482 1.38414 7.25659 1.25653 7.18498 1.15627C7.11336 1.05731 6.99748 0.998719 6.87508 1.00002H5.12508ZM3.66024 2.25002H8.33993C8.54956 2.25002 8.74357 2.35419 8.85946 2.52867L9.17456 3.00002H2.8256L3.14071 2.52867C3.14071 2.52867 3.14071 2.52867 3.14071 2.52736C3.25659 2.35419 3.4506 2.25002 3.66024 2.25002ZM2.91805 3.75002H9.08211L8.47274 9.44143C8.43888 9.76174 8.17326 10 7.85164 10H4.14852C3.8256 10 3.56128 9.76174 3.52743 9.44143L2.91805 3.75002Z" fill="black"/>
</svg>