<svg width="12" height="12" viewBox="0 0 12 12" fill="none" xmlns="http://www.w3.org/2000/svg">
<path d="M1.04565 2.68622C1.11466 2.56903 1.23966 2.49872 1.37508 2.50002H4.17057C4.30599 2.49872 4.43099 2.56903 4.5 2.68622C4.56771 2.8034 4.56771 2.94663 4.5 3.06382C4.43099 3.18101 4.30599 3.25132 4.17057 3.25002H1.37508C1.23966 3.25132 1.11466 3.18101 1.04565 3.06382C0.977946 2.94663 0.977946 2.8034 1.04565 2.68622Z" fill="black"/>
<path d="M1.04565 5.93622C1.11466 5.81903 1.23966 5.74872 1.37508 5.75002H10.6251C10.7605 5.74872 10.8855 5.81903 10.9545 5.93622C11.0222 6.0534 11.0222 6.19663 10.9545 6.31382C10.8855 6.43101 10.7605 6.50132 10.6251 6.50002H1.37508C1.23966 6.50132 1.11466 6.43101 1.04565 6.31382C0.977946 6.19663 0.977946 6.0534 1.04565 5.93622Z" fill="black"/>
<path fill-rule="evenodd" clip-rule="evenodd" d="M4 9.5C4 10.3284 3.32843 11 2.5 11C1.67157 11 1 10.3284 1 9.5C1 8.67157 1.67157 8 2.5 8C3.32843 8 4 8.67157 4 9.5ZM3.2 9.5C3.2 9.8866 2.8866 10.2 2.5 10.2C2.1134 10.2 1.8 9.8866 1.8 9.5C1.8 9.1134 2.1134 8.8 2.5 8.8C2.8866 8.8 3.2 9.1134 3.2 9.5Z" fill="black"/>
</svg>