<svg width="14" height="14" viewBox="0 0 14 14" fill="none" xmlns="http://www.w3.org/2000/svg">
<g clip-path="url(#clip0_3304_28841)">
<path d="M5.25 2.625C4.76389 2.625 4.375 3.01389 4.375 3.5C4.375 3.98611 4.76389 4.375 5.25 4.375C5.73611 4.375 6.125 3.98611 6.125 3.5C6.125 3.01389 5.73611 2.625 5.25 2.625ZM8.75 2.625C8.26389 2.625 7.875 3.01389 7.875 3.5C7.875 3.98611 8.26389 4.375 8.75 4.375C9.23611 4.375 9.625 3.98611 9.625 3.5C9.625 3.01389 9.23611 2.625 8.75 2.625ZM5.25 6.125C4.76389 6.125 4.375 6.51389 4.375 7C4.375 7.48611 4.76389 7.875 5.25 7.875C5.73611 7.875 6.125 7.48611 6.125 7C6.125 6.51389 5.73611 6.125 5.25 6.125ZM8.75 6.125C8.26389 6.125 7.875 6.51389 7.875 7C7.875 7.48611 8.26389 7.875 8.75 7.875C9.23611 7.875 9.625 7.48611 9.625 7C9.625 6.51389 9.23611 6.125 8.75 6.125ZM5.25 9.625C4.76389 9.625 4.375 10.0139 4.375 10.5C4.375 10.9861 4.76389 11.375 5.25 11.375C5.73611 11.375 6.125 10.9861 6.125 10.5C6.125 10.0139 5.73611 9.625 5.25 9.625ZM8.75 9.625C8.26389 9.625 7.875 10.0139 7.875 10.5C7.875 10.9861 8.26389 11.375 8.75 11.375C9.23611 11.375 9.625 10.9861 9.625 10.5C9.625 10.0139 9.23611 9.625 8.75 9.625Z" fill="#3B3B3B"/>
</g>
<defs>
<clipPath id="clip0_3304_28841">
<rect width="14" height="14" fill="white"/>
</clipPath>
</defs>
</svg>
