<svg width="12" height="12" viewBox="0 0 12 12" fill="none" xmlns="http://www.w3.org/2000/svg">
<path d="M5.11857 1.2449C4.91284 1.24751 4.74748 1.41808 4.75008 1.62511V10.3751C4.74878 10.5105 4.81909 10.6355 4.93628 10.7045C5.05347 10.7722 5.1967 10.7722 5.31388 10.7045C5.43107 10.6355 5.50138 10.5105 5.50008 10.3751V1.62511C5.50138 1.52355 5.46232 1.42589 5.39071 1.35428C5.31779 1.28266 5.22013 1.2436 5.11857 1.2449ZM6.86857 1.2449C6.66284 1.24751 6.49748 1.41808 6.50008 1.62511V10.3751C6.49878 10.5105 6.56909 10.6355 6.68628 10.7045C6.80347 10.7722 6.9467 10.7722 7.06388 10.7045C7.18107 10.6355 7.25138 10.5105 7.25008 10.3751V1.62511C7.25138 1.52355 7.21232 1.42589 7.14071 1.35428C7.06779 1.28266 6.97013 1.2436 6.86857 1.2449ZM9.62118 4.24621C9.46883 4.24621 9.33081 4.33865 9.27352 4.48058C9.21623 4.62121 9.25008 4.78397 9.35946 4.89074L10.2201 5.75011H8.12508C7.98967 5.74881 7.86467 5.81912 7.79565 5.93631C7.72795 6.0535 7.72795 6.19673 7.79565 6.31392C7.86467 6.4311 7.98967 6.50141 8.12508 6.50011H10.2201L9.35946 7.35949C9.2618 7.45454 9.22274 7.59386 9.25659 7.72537C9.29045 7.85688 9.39331 7.95975 9.52482 7.9936C9.65633 8.02746 9.79565 7.98839 9.89071 7.89074L11.3907 6.39074C11.5365 6.2436 11.5365 6.00662 11.3907 5.85949L9.89071 4.35949C9.81909 4.28787 9.72274 4.24621 9.62118 4.24621ZM2.36727 4.24621C2.27091 4.25011 2.17847 4.29048 2.10946 4.35949L0.642008 5.82824C0.549561 5.89855 0.494873 6.00923 0.494873 6.12642C0.496175 6.2436 0.550863 6.35428 0.644613 6.42459L2.10946 7.89074C2.20451 7.98839 2.34383 8.02746 2.47534 7.9936C2.60685 7.95975 2.70972 7.85688 2.74357 7.72537C2.77743 7.59386 2.73836 7.45454 2.64071 7.35949L1.78003 6.50011H3.87508C4.0105 6.50141 4.1355 6.4311 4.20451 6.31392C4.27222 6.19673 4.27222 6.0535 4.20451 5.93631C4.1355 5.81912 4.0105 5.74881 3.87508 5.75011H1.78003L2.64071 4.89074C2.75138 4.78267 2.78394 4.6173 2.72404 4.47537C2.66414 4.33345 2.52222 4.2423 2.36727 4.24621Z" fill="#393E46"/>
</svg>