<svg width="12" height="13" viewBox="0 0 12 13" fill="none" xmlns="http://www.w3.org/2000/svg">
<g id="icon">
<path id="Vector" d="M5.5 9.53003C5.5 10.08 5.05 10.53 4.5 10.53C3.95 10.53 3.5 10.08 3.5 9.53003C3.5 8.98003 3.95 8.53003 4.5 8.53003C5.05 8.53003 5.5 8.98003 5.5 9.53003ZM4.5 5.53003C3.95 5.53003 3.5 5.98003 3.5 6.53003C3.5 7.08003 3.95 7.53003 4.5 7.53003C5.05 7.53003 5.5 7.08003 5.5 6.53003C5.5 5.98003 5.05 5.53003 4.5 5.53003ZM4.5 2.53003C3.95 2.53003 3.5 2.98003 3.5 3.53003C3.5 4.08003 3.95 4.53003 4.5 4.53003C5.05 4.53003 5.5 4.08003 5.5 3.53003C5.5 2.98003 5.05 2.53003 4.5 2.53003ZM7.5 4.53003C8.05 4.53003 8.5 4.08003 8.5 3.53003C8.5 2.98003 8.05 2.53003 7.5 2.53003C6.95 2.53003 6.5 2.98003 6.5 3.53003C6.5 4.08003 6.95 4.53003 7.5 4.53003ZM7.5 5.53003C6.95 5.53003 6.5 5.98003 6.5 6.53003C6.5 7.08003 6.95 7.53003 7.5 7.53003C8.05 7.53003 8.5 7.08003 8.5 6.53003C8.5 5.98003 8.05 5.53003 7.5 5.53003ZM7.5 8.53003C6.95 8.53003 6.5 8.98003 6.5 9.53003C6.5 10.08 6.95 10.53 7.5 10.53C8.05 10.53 8.5 10.08 8.5 9.53003C8.5 8.98003 8.05 8.53003 7.5 8.53003Z" fill="#38393B" fill-opacity="0.56"/>
</g>
</svg>