<svg width="12" height="12" viewBox="0 0 12 12" fill="none" xmlns="http://www.w3.org/2000/svg">
<path d="M3.625 1.75C2.86979 1.75 2.25 2.36979 2.25 3.125V7.625C2.25 8.38021 2.86979 9 3.625 9H9.625C10.3802 9 11 8.38021 11 7.625V3.125C11 2.36979 10.3802 1.75 9.625 1.75H3.625ZM3.625 2.5H9.625C9.97396 2.5 10.25 2.77604 10.25 3.125V7.625C10.25 7.97396 9.97396 8.25 9.625 8.25H3.625C3.27604 8.25 3 7.97396 3 7.625V3.125C3 2.77604 3.27604 2.5 3.625 2.5ZM1.75 3L1.44531 3.20312C1.16667 3.38802 1 3.70052 1 4.03516V7.875C1 9.1862 2.0638 10.25 3.375 10.25H8.71484C9.04948 10.25 9.36198 10.0833 9.54688 9.80469L9.75 9.5H3.375C2.47786 9.5 1.75 8.77214 1.75 7.875V3ZM6.61849 3.74479C6.41276 3.7474 6.2474 3.91797 6.25 4.125V5H5.375C5.23958 4.9987 5.11458 5.06901 5.04557 5.1862C4.97786 5.30339 4.97786 5.44661 5.04557 5.5638C5.11458 5.68099 5.23958 5.7513 5.375 5.75H6.25V6.625C6.2487 6.76042 6.31901 6.88542 6.4362 6.95443C6.55339 7.02214 6.69661 7.02214 6.8138 6.95443C6.93099 6.88542 7.0013 6.76042 7 6.625V5.75H7.875C8.01042 5.7513 8.13542 5.68099 8.20443 5.5638C8.27214 5.44661 8.27214 5.30339 8.20443 5.1862C8.13542 5.06901 8.01042 4.9987 7.875 5H7V4.125C7.0013 4.02344 6.96224 3.92578 6.89062 3.85417C6.81771 3.78255 6.72005 3.74349 6.61849 3.74479Z" fill="black"/>
</svg>