<svg width="20" height="20" viewBox="0 0 20 20" fill="none" xmlns="http://www.w3.org/2000/svg">
<g clip-path="url(#clip0_3304_11379)">
<path d="M6.04102 2.91666C4.78234 2.91666 3.74935 3.94964 3.74935 5.20832V12.7083C3.74935 13.967 4.78234 15 6.04102 15H16.041C17.2997 15 18.3327 13.967 18.3327 12.7083V5.20832C18.3327 3.94964 17.2997 2.91666 16.041 2.91666H6.04102ZM6.04102 4.16666H16.041C16.6226 4.16666 17.0827 4.62673 17.0827 5.20832V12.7083C17.0827 13.2899 16.6226 13.75 16.041 13.75H6.04102C5.45942 13.75 4.99935 13.2899 4.99935 12.7083V5.20832C4.99935 4.62673 5.45942 4.16666 6.04102 4.16666ZM2.91602 4.99999L2.4082 5.33853C1.94379 5.64669 1.66602 6.16752 1.66602 6.72525V13.125C1.66602 15.3103 3.43902 17.0833 5.62435 17.0833H14.5241C15.0818 17.0833 15.6026 16.8055 15.9108 16.3411L16.2493 15.8333H5.62435C4.12912 15.8333 2.91602 14.6202 2.91602 13.125V4.99999ZM11.0302 6.24131C10.6873 6.24565 10.4117 6.52994 10.416 6.87499V8.33332H8.95768C8.73199 8.33115 8.52366 8.44834 8.40864 8.64365C8.29579 8.83897 8.29579 9.07768 8.40864 9.27299C8.52366 9.46831 8.73199 9.58549 8.95768 9.58332H10.416V11.0417C10.4138 11.2674 10.531 11.4757 10.7263 11.5907C10.9217 11.7036 11.1604 11.7036 11.3557 11.5907C11.551 11.4757 11.6682 11.2674 11.666 11.0417V9.58332H13.1243C13.35 9.58549 13.5584 9.46831 13.6734 9.27299C13.7862 9.07768 13.7862 8.83897 13.6734 8.64365C13.5584 8.44834 13.35 8.33115 13.1243 8.33332H11.666V6.87499C11.6682 6.70572 11.6031 6.54296 11.4837 6.4236C11.3622 6.30424 11.1994 6.23914 11.0302 6.24131Z" fill="#3B3B3B"/>
</g>
<defs>
<clipPath id="clip0_3304_11379">
<rect width="20" height="20" fill="white"/>
</clipPath>
</defs>
</svg>
