<svg width="36" height="37" viewBox="0 0 36 37" fill="none" xmlns="http://www.w3.org/2000/svg">
<g clip-path="url(#clip0_3462_13795)">
<path d="M22.0002 12.4219C21.4013 12.4219 20.804 12.6493 20.3509 13.1024L12.9724 20.4792C12.8318 20.6198 12.7294 20.7934 12.6756 20.9844L11.686 24.4479C11.6374 24.6215 11.686 24.809 11.8145 24.9375C11.9429 25.066 12.1304 25.1146 12.304 25.066L15.7676 24.0764C15.7676 24.0764 15.7676 24.0764 15.7693 24.0764C15.9586 24.0208 16.1322 23.9201 16.2728 23.7795L23.6495 16.401C24.5575 15.4948 24.5575 14.0087 23.6495 13.1024C23.1964 12.6493 22.5992 12.4219 22.0002 12.4219ZM22.0002 13.4149C22.3405 13.4149 22.6808 13.5469 22.9429 13.809C23.4672 14.3333 23.4672 15.1701 22.9429 15.6944L22.2971 16.3403L20.4117 14.4549L21.0575 13.809C21.3197 13.5469 21.6599 13.4149 22.0002 13.4149ZM19.7034 15.1632L21.5888 17.0486L15.5645 23.0729C15.5454 23.092 15.5211 23.1076 15.4915 23.1146L12.8943 23.8576L13.6374 21.2587C13.6443 21.2309 13.6582 21.2066 13.679 21.1875L19.7034 15.1632Z" fill="#3B3B3B"/>
</g>
<defs>
<clipPath id="clip0_3462_13795">
<rect width="16" height="16" fill="white" transform="translate(10 10.75)"/>
</clipPath>
</defs>
</svg>
