<svg xmlns="http://www.w3.org/2000/svg" width="16" height="16" viewBox="0 0 16 16" fill="none">
  <g clip-path="url(#clip0_225_9157)">
    <path d="M2.49984 0.666504C1.49405 0.666504 0.666504 1.49405 0.666504 2.49984V5.7591C0.666504 6.76488 1.49405 7.59243 2.49984 7.59243H5.7591C6.76488 7.59243 7.59243 6.76488 7.59243 5.7591V2.49984C7.59243 1.49405 6.76488 0.666504 5.7591 0.666504H2.49984ZM10.2406 0.666504C9.23479 0.666504 8.40724 1.49405 8.40724 2.49984V5.7591C8.40724 6.76488 9.23479 7.59243 10.2406 7.59243H13.4998C14.5056 7.59243 15.3332 6.76488 15.3332 5.7591V2.49984C15.3332 1.49405 14.5056 0.666504 13.4998 0.666504H10.2406ZM2.49984 1.88873H5.7591C6.10285 1.88873 6.37021 2.15609 6.37021 2.49984V5.7591C6.37021 6.10285 6.10285 6.37021 5.7591 6.37021H2.49984C2.15609 6.37021 1.88873 6.10285 1.88873 5.7591V2.49984C1.88873 2.15609 2.15609 1.88873 2.49984 1.88873ZM10.2406 1.88873H13.4998C13.8436 1.88873 14.1109 2.15609 14.1109 2.49984V5.7591C14.1109 6.10285 13.8436 6.37021 13.4998 6.37021H10.2406C9.89683 6.37021 9.62947 6.10285 9.62947 5.7591V2.49984C9.62947 2.15609 9.89683 1.88873 10.2406 1.88873ZM4.12947 3.11095C3.5661 3.11095 3.11095 3.5661 3.11095 4.12947C3.11095 4.69283 3.5661 5.14799 4.12947 5.14799C4.69283 5.14799 5.14799 4.69283 5.14799 4.12947C5.14799 3.5661 4.69283 3.11095 4.12947 3.11095ZM2.49984 8.40724C1.49405 8.40724 0.666504 9.23479 0.666504 10.2406V13.4998C0.666504 14.5056 1.49405 15.3332 2.49984 15.3332H5.7591C6.76488 15.3332 7.59243 14.5056 7.59243 13.4998V10.2406C7.59243 9.23479 6.76488 8.40724 5.7591 8.40724H2.49984ZM10.2406 8.40724C9.23479 8.40724 8.40724 9.23479 8.40724 10.2406V13.4998C8.40724 14.5056 9.23479 15.3332 10.2406 15.3332H13.4998C14.5056 15.3332 15.3332 14.5056 15.3332 13.4998V10.2406C15.3332 9.23479 14.5056 8.40724 13.4998 8.40724H10.2406ZM2.49984 9.62947H5.7591C6.10285 9.62947 6.37021 9.89683 6.37021 10.2406V13.4998C6.37021 13.8436 6.10285 14.1109 5.7591 14.1109H2.49984C2.15609 14.1109 1.88873 13.8436 1.88873 13.4998V10.2406C1.88873 9.89683 2.15609 9.62947 2.49984 9.62947ZM10.2406 9.62947H13.4998C13.8436 9.62947 14.1109 9.89683 14.1109 10.2406V13.4998C14.1109 13.8436 13.8436 14.1109 13.4998 14.1109H10.2406C9.89683 14.1109 9.62947 13.8436 9.62947 13.4998V10.2406C9.62947 9.89683 9.89683 9.62947 10.2406 9.62947ZM11.8702 10.6798C11.7652 10.6798 11.6633 10.718 11.5837 10.7976L10.7976 11.5837C10.6384 11.7429 10.6384 11.9975 10.7976 12.1567L11.5837 12.9428C11.7429 13.102 11.9975 13.102 12.1567 12.9428L12.9428 12.1567C13.102 11.9975 13.102 11.7429 12.9428 11.5837L12.1567 10.7976C12.0771 10.718 11.9752 10.6798 11.8702 10.6798ZM4.12947 11.0554C4.05626 11.0554 3.97987 11.0904 3.93531 11.1636L3.07594 12.5386C2.98045 12.6914 3.08867 12.8887 3.27009 12.8887H4.98884C5.17027 12.8887 5.27848 12.6914 5.183 12.5386L4.32362 11.1636C4.27906 11.0904 4.20267 11.0554 4.12947 11.0554Z" fill="white"/>
  </g>
  <defs>
    <clipPath id="clip0_225_9157">
      <rect width="16" height="16" fill="white"/>
    </clipPath>
  </defs>
</svg>