<svg xmlns="http://www.w3.org/2000/svg" width="16" height="16" viewBox="0 0 16 16" fill="none">
  <g clip-path="url(#clip0_225_12150)">
    <path d="M2.49984 0.666992C1.49405 0.666992 0.666504 1.49454 0.666504 2.50033V5.75958C0.666504 6.76537 1.49405 7.59292 2.49984 7.59292H5.7591C6.76488 7.59292 7.59243 6.76537 7.59243 5.75958V2.50033C7.59243 1.49454 6.76488 0.666992 5.7591 0.666992H2.49984ZM10.2406 0.666992C9.23479 0.666992 8.40724 1.49454 8.40724 2.50033V5.75958C8.40724 6.76537 9.23479 7.59292 10.2406 7.59292H13.4998C14.5056 7.59292 15.3332 6.76537 15.3332 5.75958V2.50033C15.3332 1.49454 14.5056 0.666992 13.4998 0.666992H10.2406ZM2.49984 1.88921H5.7591C6.10285 1.88921 6.37021 2.15658 6.37021 2.50033V5.75958C6.37021 6.10333 6.10285 6.3707 5.7591 6.3707H2.49984C2.15609 6.3707 1.88873 6.10333 1.88873 5.75958V2.50033C1.88873 2.15658 2.15609 1.88921 2.49984 1.88921ZM10.2406 1.88921H13.4998C13.8436 1.88921 14.1109 2.15658 14.1109 2.50033V5.75958C14.1109 6.10333 13.8436 6.3707 13.4998 6.3707H10.2406C9.89683 6.3707 9.62947 6.10333 9.62947 5.75958V2.50033C9.62947 2.15658 9.89683 1.88921 10.2406 1.88921ZM4.12947 3.11144C3.5661 3.11144 3.11095 3.56659 3.11095 4.12996C3.11095 4.69332 3.5661 5.14847 4.12947 5.14847C4.69283 5.14847 5.14799 4.69332 5.14799 4.12996C5.14799 3.56659 4.69283 3.11144 4.12947 3.11144ZM2.49984 8.40773C1.49405 8.40773 0.666504 9.23528 0.666504 10.2411V13.5003C0.666504 14.5061 1.49405 15.3337 2.49984 15.3337H5.7591C6.76488 15.3337 7.59243 14.5061 7.59243 13.5003V10.2411C7.59243 9.23528 6.76488 8.40773 5.7591 8.40773H2.49984ZM10.2406 8.40773C9.23479 8.40773 8.40724 9.23528 8.40724 10.2411V13.5003C8.40724 14.5061 9.23479 15.3337 10.2406 15.3337H13.4998C14.5056 15.3337 15.3332 14.5061 15.3332 13.5003V10.2411C15.3332 9.23528 14.5056 8.40773 13.4998 8.40773H10.2406ZM2.49984 9.62996H5.7591C6.10285 9.62996 6.37021 9.89732 6.37021 10.2411V13.5003C6.37021 13.8441 6.10285 14.1114 5.7591 14.1114H2.49984C2.15609 14.1114 1.88873 13.8441 1.88873 13.5003V10.2411C1.88873 9.89732 2.15609 9.62996 2.49984 9.62996ZM10.2406 9.62996H13.4998C13.8436 9.62996 14.1109 9.89732 14.1109 10.2411V13.5003C14.1109 13.8441 13.8436 14.1114 13.4998 14.1114H10.2406C9.89683 14.1114 9.62947 13.8441 9.62947 13.5003V10.2411C9.62947 9.89732 9.89683 9.62996 10.2406 9.62996ZM11.8702 10.6803C11.7652 10.6803 11.6633 10.7185 11.5837 10.7981L10.7976 11.5842C10.6384 11.7434 10.6384 11.998 10.7976 12.1572L11.5837 12.9433C11.7429 13.1025 11.9975 13.1025 12.1567 12.9433L12.9428 12.1572C13.102 11.998 13.102 11.7434 12.9428 11.5842L12.1567 10.7981C12.0771 10.7185 11.9752 10.6803 11.8702 10.6803ZM4.12947 11.0559C4.05626 11.0559 3.97987 11.0909 3.93531 11.1641L3.07594 12.5391C2.98045 12.6919 3.08867 12.8892 3.27009 12.8892H4.98884C5.17027 12.8892 5.27848 12.6919 5.183 12.5391L4.32362 11.1641C4.27906 11.0909 4.20267 11.0559 4.12947 11.0559Z" fill="#5C6370"/>
  </g>
  <defs>
    <clipPath id="clip0_225_12150">
      <rect width="16" height="16" fill="white"/>
    </clipPath>
  </defs>
</svg>