<svg width="20" height="20" viewBox="0 0 24 24" fill="none" xmlns="http://www.w3.org/2000/svg">
<path d="M21 3.00002H3C2.44772 3.00002 2 3.44774 2 4.00002V20C2 20.5523 2.44772 21 3 21H21C21.5523 21 22 20.5523 22 20V4.00002C22 3.44774 21.5523 3.00002 21 3.00002Z" stroke="#495057" stroke-width="2" stroke-linecap="round" stroke-linejoin="round"/>
<path d="M8.5 10C9.32843 10 10 9.32843 10 8.5C10 7.67157 9.32843 7 8.5 7C7.67157 7 7 7.67157 7 8.5C7 9.32843 7.67157 10 8.5 10Z" stroke="#495057" stroke-width="2" stroke-linecap="round" stroke-linejoin="round"/>
<path d="M22 15.021L17.521 10.542C17.1448 10.1658 16.5941 10.1201 16.1654 10.421L11.5 14M2 17L6.5 12.5C6.875 12.125 7.5 12.125 7.875 12.5L11.5 16.125" stroke="#495057" stroke-width="2" stroke-linecap="round" stroke-linejoin="round"/>
</svg>
