<svg width="10" height="10" viewBox="0 0 10 10" xmlns="http://www.w3.org/2000/svg">
  <g transform="skewX(-10)">
    <path d="M5.99357 1.2449C5.78784 1.24751 5.62248 1.41808 5.62508 1.62511V5.62511H1.62508C1.48966 5.62381 1.36466 5.69412 1.29565 5.81131C1.22795 5.9285 1.22795 6.07173 1.29565 6.18892C1.36466 6.3061 1.48966 6.37641 1.62508 6.37511H5.62508V10.3751C5.62378 10.5105 5.69409 10.6355 5.81128 10.7045C5.92847 10.7722 6.0717 10.7722 6.18888 10.7045C6.30607 10.6355 6.37638 10.5105 6.37508 10.3751V6.37511H10.3751C10.5105 6.37641 10.6355 6.3061 10.7045 6.18892C10.7722 6.07173 10.7722 5.9285 10.7045 5.81131C10.6355 5.69412 10.5105 5.62381 10.3751 5.62511H6.37508V1.62511C6.37638 1.52355 6.33732 1.42589 6.26571 1.35428C6.19279 1.28266 6.09513 1.2436 5.99357 1.2449Z" fill="#5c5f66"/>
  </g>
</svg>