<svg width="14" height="14" viewBox="0 0 14 14" fill="none" xmlns="http://www.w3.org/2000/svg">
<path d="M12.8954 0.583426C12.877 0.583426 12.8585 0.586063 12.8427 0.588701H8.17974C7.99776 0.586063 7.82633 0.68101 7.73402 0.839255C7.64435 0.9975 7.64435 1.19267 7.73402 1.35091C7.82633 1.50916 7.99776 1.60411 8.17974 1.60147H11.6822L6.4707 6.813C6.33883 6.9396 6.28608 7.12949 6.33092 7.3062C6.37839 7.48291 6.51817 7.62269 6.69488 7.67016C6.87159 7.715 7.06148 7.66225 7.18808 7.53038L12.3996 2.31885V5.82133C12.397 6.00332 12.4919 6.17475 12.6502 6.26706C12.8084 6.35673 13.0036 6.35673 13.1618 6.26706C13.3201 6.17475 13.415 6.00332 13.4124 5.82133V1.15838C13.4335 1.01069 13.386 0.862992 13.2884 0.752221C13.1882 0.641449 13.0458 0.580788 12.8954 0.583426ZM3.1159 1.60147C1.72335 1.60147 0.583984 2.74083 0.583984 4.13339V10.8852C0.583984 12.2777 1.72335 13.4171 3.1159 13.4171H9.86769C11.2602 13.4171 12.3996 12.2777 12.3996 10.8852V7.50928C12.4022 7.3273 12.3073 7.15587 12.1491 7.06356C11.9908 6.97389 11.7956 6.97389 11.6374 7.06356C11.4792 7.15587 11.3842 7.3273 11.3868 7.50928V10.8852C11.3868 11.7291 10.7117 12.4043 9.86769 12.4043H3.1159C2.27193 12.4043 1.59675 11.7291 1.59675 10.8852V4.13339C1.59675 3.28942 2.27193 2.61424 3.1159 2.61424H6.4918C6.67378 2.61687 6.84521 2.52193 6.93752 2.36368C7.02719 2.20544 7.02719 2.01027 6.93752 1.85202C6.84521 1.69378 6.67378 1.59883 6.4918 1.60147H3.1159Z" fill="#3B3B3B"/>
</svg>
