<svg width="16" height="16" viewBox="0 0 16 16" fill="none" xmlns="http://www.w3.org/2000/svg">
<path d="M2.00002 13.5069C1.99829 13.6875 2.09204 13.8542 2.24829 13.9462C2.40454 14.0365 2.59551 14.0365 2.75176 13.9462C2.90801 13.8542 3.00176 13.6875 3.00002 13.5069V2.50694C3.00176 2.32639 2.90801 2.15972 2.75176 2.06771C2.59551 1.97743 2.40454 1.97743 2.24829 2.06771C2.09204 2.15972 1.99829 2.32639 2.00002 2.50694V13.5069Z" fill="#3B3B3B"/>
<path d="M4.67334 10.4425C4.67334 11.3056 5.49973 12.0139 6.50667 12.0139H10.84C11.847 12.0139 12.6733 11.3056 12.6733 10.4425V5.58532C12.6733 4.72222 11.847 4.01389 10.84 4.01389H6.50667C5.49973 4.01389 4.67334 4.72222 4.67334 5.58532V10.4425ZM5.67334 10.4425V5.58532C5.67334 5.18651 6.0414 4.87103 6.50667 4.87103H10.84C11.3053 4.87103 11.6733 5.18651 11.6733 5.58532V10.4425C11.6733 10.8413 11.3053 11.1567 10.84 11.1567H6.50667C6.0414 11.1567 5.67334 10.8413 5.67334 10.4425Z" fill="#3B3B3B"/>
</svg>
