<svg xmlns="http://www.w3.org/2000/svg" width="16" height="16" viewBox="0 0 16 16" fill="none">
  <path d="M1.63092 1.3335C1.1035 1.3335 0.666504 1.7705 0.666504 2.29791V4.22675C0.666504 4.75416 1.1035 5.19116 1.63092 5.19116H3.55975C4.08717 5.19116 4.52417 4.75416 4.52417 4.22675V2.29791C4.52417 1.7705 4.08717 1.3335 3.55975 1.3335H1.63092ZM1.8238 2.4908H3.36687V4.03386H1.8238V2.4908ZM6.26012 2.87656C6.05217 2.87355 5.85627 2.98205 5.75079 3.16287C5.64832 3.3437 5.64832 3.56672 5.75079 3.74755C5.85627 3.92838 6.05217 4.03688 6.26012 4.03386H14.747C14.9549 4.03688 15.1508 3.92838 15.2563 3.74755C15.3588 3.56672 15.3588 3.3437 15.2563 3.16287C15.1508 2.98205 14.9549 2.87355 14.747 2.87656H6.26012ZM1.63092 5.9627C1.1035 5.9627 0.666504 6.3997 0.666504 6.92711V8.85595C0.666504 9.38336 1.1035 9.82036 1.63092 9.82036H3.55975C4.08717 9.82036 4.52417 9.38336 4.52417 8.85595V6.92711C4.52417 6.3997 4.08717 5.9627 3.55975 5.9627H1.63092ZM1.8238 7.12H3.36687V8.66306H1.8238V7.12ZM6.26012 7.50576C6.05217 7.50275 5.85627 7.61125 5.75079 7.79207C5.64832 7.9729 5.64832 8.19592 5.75079 8.37675C5.85627 8.55758 6.05217 8.66608 6.26012 8.66306H14.747C14.9549 8.66608 15.1508 8.55758 15.2563 8.37675C15.3588 8.19592 15.3588 7.9729 15.2563 7.79207C15.1508 7.61125 14.9549 7.50275 14.747 7.50576H6.26012ZM1.63092 10.5919C1.1035 10.5919 0.666504 11.0289 0.666504 11.5563V13.4851C0.666504 14.0126 1.1035 14.4496 1.63092 14.4496H3.55975C4.08717 14.4496 4.52417 14.0126 4.52417 13.4851V11.5563C4.52417 11.0289 4.08717 10.5919 3.55975 10.5919H1.63092ZM1.8238 11.7492H3.36687V13.2923H1.8238V11.7492ZM6.26012 12.135C6.05217 12.1319 5.85627 12.2404 5.75079 12.4213C5.64832 12.6021 5.64832 12.8251 5.75079 13.006C5.85627 13.1868 6.05217 13.2953 6.26012 13.2923H14.747C14.9549 13.2953 15.1508 13.1868 15.2563 13.006C15.3588 12.8251 15.3588 12.6021 15.2563 12.4213C15.1508 12.2404 14.9549 12.1319 14.747 12.135H6.26012Z" fill="#5C6370"/>
</svg>