<svg xmlns="http://www.w3.org/2000/svg" width="16" height="16" viewBox="0 0 16 16" fill="none">
  <path d="M1.63092 1.33301C1.1035 1.33301 0.666504 1.77001 0.666504 2.29742V4.22626C0.666504 4.75367 1.1035 5.19067 1.63092 5.19067H3.55975C4.08717 5.19067 4.52417 4.75367 4.52417 4.22626V2.29742C4.52417 1.77001 4.08717 1.33301 3.55975 1.33301H1.63092ZM1.8238 2.49031H3.36687V4.03337H1.8238V2.49031ZM6.26012 2.87607C6.05217 2.87306 5.85627 2.98156 5.75079 3.16239C5.64832 3.34321 5.64832 3.56623 5.75079 3.74706C5.85627 3.92789 6.05217 4.03639 6.26012 4.03337H14.747C14.9549 4.03639 15.1508 3.92789 15.2563 3.74706C15.3588 3.56623 15.3588 3.34321 15.2563 3.16239C15.1508 2.98156 14.9549 2.87306 14.747 2.87607H6.26012ZM1.63092 5.96221C1.1035 5.96221 0.666504 6.39921 0.666504 6.92662V8.85546C0.666504 9.38287 1.1035 9.81987 1.63092 9.81987H3.55975C4.08717 9.81987 4.52417 9.38287 4.52417 8.85546V6.92662C4.52417 6.39921 4.08717 5.96221 3.55975 5.96221H1.63092ZM1.8238 7.11951H3.36687V8.66257H1.8238V7.11951ZM6.26012 7.50527C6.05217 7.50226 5.85627 7.61076 5.75079 7.79159C5.64832 7.97241 5.64832 8.19543 5.75079 8.37626C5.85627 8.55709 6.05217 8.66559 6.26012 8.66257H14.747C14.9549 8.66559 15.1508 8.55709 15.2563 8.37626C15.3588 8.19543 15.3588 7.97241 15.2563 7.79159C15.1508 7.61076 14.9549 7.50226 14.747 7.50527H6.26012ZM1.63092 10.5914C1.1035 10.5914 0.666504 11.0284 0.666504 11.5558V13.4847C0.666504 14.0121 1.1035 14.4491 1.63092 14.4491H3.55975C4.08717 14.4491 4.52417 14.0121 4.52417 13.4847V11.5558C4.52417 11.0284 4.08717 10.5914 3.55975 10.5914H1.63092ZM1.8238 11.7487H3.36687V13.2918H1.8238V11.7487ZM6.26012 12.1345C6.05217 12.1315 5.85627 12.24 5.75079 12.4208C5.64832 12.6016 5.64832 12.8246 5.75079 13.0055C5.85627 13.1863 6.05217 13.2948 6.26012 13.2918H14.747C14.9549 13.2948 15.1508 13.1863 15.2563 13.0055C15.3588 12.8246 15.3588 12.6016 15.2563 12.4208C15.1508 12.24 14.9549 12.1315 14.747 12.1345H6.26012Z" fill="white"/>
</svg>