<svg width="16" height="16" viewBox="0 0 16 16" fill="none" xmlns="http://www.w3.org/2000/svg">
<path d="M14.0073 2.50694C14.009 2.32639 13.9153 2.15972 13.759 2.06771C13.6028 1.97743 13.4118 1.97743 13.2556 2.06771C13.0993 2.15972 13.0056 2.32639 13.0073 2.50694V13.5069C13.0056 13.6875 13.0993 13.8542 13.2556 13.9462C13.4118 14.0365 13.6028 14.0365 13.759 13.9462C13.9153 13.8542 14.009 13.6875 14.0073 13.5069V2.50694Z" fill="#3B3B3B"/>
<path d="M11.334 5.57143C11.334 4.70833 10.5076 4 9.50065 4H5.16732C4.16037 4 3.33398 4.70833 3.33398 5.57143V10.4286C3.33398 11.2917 4.16037 12 5.16732 12H9.50065C10.5076 12 11.334 11.2917 11.334 10.4286V5.57143ZM10.334 5.57143V10.4286C10.334 10.8274 9.96593 11.1429 9.50065 11.1429H5.16732C4.70204 11.1429 4.33398 10.8274 4.33398 10.4286V5.57143C4.33398 5.17262 4.70204 4.85714 5.16732 4.85714H9.50065C9.96593 4.85714 10.334 5.17262 10.334 5.57143Z" fill="#3B3B3B"/>
</svg>
