<svg width="16" height="16" viewBox="0 0 24 24" fill="none" xmlns="http://www.w3.org/2000/svg">
<path d="M21 9L3 9M21 15L3 15M20 3C20.2652 3 20.5196 3.10536 20.7071 3.29289C20.8946 3.48043 21 3.73478 21 4L21 20C21 20.2652 20.8946 20.5196 20.7071 20.7071C20.5196 20.8946 20.2652 21 20 21L4 21C3.73478 21 3.48043 20.8946 3.29289 20.7071C3.10536 20.5196 3 20.2652 3 20L3 4C3 3.73478 3.10536 3.48043 3.29289 3.29289C3.48043 3.10536 3.73478 3 4 3L20 3Z" stroke="#2c3e50" stroke-width="1.5" stroke-linecap="round" stroke-linejoin="round"/>
<line x1="8.35355" y1="9.35355" x2="3.35355" y2="14.3536" stroke="#2c3e50"/>
<line x1="12.3536" y1="9.35355" x2="7.35355" y2="14.3536" stroke="#2c3e50"/>
<line x1="16.3536" y1="9.35355" x2="11.3536" y2="14.3536" stroke="#2c3e50"/>
<line x1="20.3536" y1="9.35355" x2="15.3536" y2="14.3536" stroke="#2c3e50"/>
</svg>
