<svg xmlns="http://www.w3.org/2000/svg" width="20" height="20" viewBox="0 0 20 20" fill="none">
<path d="M7.67565 15.834H9.16732V18.334C9.16732 18.7923 9.54232 19.1673 10.0007 19.1673C10.459 19.1673 10.834 18.7923 10.834 18.334V15.834H12.3257C12.7007 15.834 12.884 15.384 12.6173 15.1256L10.2923 12.8006C10.1257 12.634 9.86732 12.634 9.70065 12.8006L7.37565 15.1256C7.11732 15.384 7.30065 15.834 7.67565 15.834ZM12.3257 4.16732H10.834V1.66732C10.834 1.20898 10.459 0.833984 10.0007 0.833984C9.54232 0.833984 9.16732 1.20898 9.16732 1.66732V4.16732H7.67565C7.30065 4.16732 7.11732 4.61732 7.37565 4.87565L9.70065 7.20065C9.86732 7.36732 10.1257 7.36732 10.2923 7.20065L12.6173 4.87565C12.884 4.61732 12.7007 4.16732 12.3257 4.16732ZM3.33398 10.0007C3.33398 10.459 3.70898 10.834 4.16732 10.834H15.834C16.2923 10.834 16.6673 10.459 16.6673 10.0007C16.6673 9.54232 16.2923 9.16732 15.834 9.16732H4.16732C3.70898 9.16732 3.33398 9.54232 3.33398 10.0007Z" fill="#707274"/>
</svg>
