<svg xmlns="http://www.w3.org/2000/svg" width="18" height="5" viewBox="0 0 18 5" fill="none">
  <path d="M2.79829 0.5C1.62742 0.5 0.666504 1.46092 0.666504 2.63178C0.666504 3.80265 1.62742 4.76357 2.79829 4.76357C3.96915 4.76357 4.93007 3.80265 4.93007 2.63178C4.93007 1.46092 3.96915 0.5 2.79829 0.5ZM15.2014 0.5C14.0305 0.5 13.0696 1.46092 13.0696 2.63178C13.0696 3.80265 14.0305 4.76357 15.2014 4.76357C16.3723 4.76357 17.3332 3.80265 17.3332 2.63178C17.3332 1.46092 16.3723 0.5 15.2014 0.5ZM8.99984 0.5C7.82897 0.5 6.86806 1.46092 6.86806 2.63178C6.86806 3.80265 7.82897 4.76357 8.99984 4.76357C10.1707 4.76357 11.1316 3.80265 11.1316 2.63178C11.1316 1.46092 10.1707 0.5 8.99984 0.5Z" fill="#393E46"/>
</svg>