<svg width="16" height="16" viewBox="0 0 16 16" fill="none" xmlns="http://www.w3.org/2000/svg">
<path d="M2.50694 1.99334C2.32639 1.9916 2.15972 2.08535 2.06771 2.2416C1.97743 2.39785 1.97743 2.58883 2.06771 2.74508C2.15972 2.90133 2.32639 2.99508 2.50694 2.99334H13.5069C13.6875 2.99508 13.8542 2.90133 13.9462 2.74508C14.0365 2.58883 14.0365 2.39785 13.9462 2.2416C13.8542 2.08535 13.6875 1.9916 13.5069 1.99334H2.50694Z" fill="#3B3B3B"/>
<path d="M5.57143 4.66666C4.70833 4.66666 4 5.49305 4 6.49999V10.8333C4 11.8403 4.70833 12.6667 5.57143 12.6667H10.4286C11.2917 12.6667 12 11.8403 12 10.8333V6.49999C12 5.49305 11.2917 4.66666 10.4286 4.66666H5.57143ZM5.57143 5.66666H10.4286C10.8274 5.66666 11.1429 6.03471 11.1429 6.49999V10.8333C11.1429 11.2986 10.8274 11.6667 10.4286 11.6667H5.57143C5.17262 11.6667 4.85714 11.2986 4.85714 10.8333V6.49999C4.85714 6.03471 5.17262 5.66666 5.57143 5.66666Z" fill="#3B3B3B"/>
</svg>
